<svg enable-background="new 0 0 24 24" viewBox="0 0 24 24" xmlns="http://www.w3.org/2000/svg"><g fill="#000"><path d="m22.06 8.668-3.43-3.288-3.36-3.36-13.64 13.63 3.339 3.338 3.382 3.383z"></path><path d="m15.977 1.313 3.36 3.36 3.415 3.273c.004.004.006.01.01.014l.159-.16c.699-.7 1.084-1.629 1.081-2.617-.002-.983-.387-1.905-1.082-2.593l-1.508-1.508c-.69-.697-1.612-1.082-2.596-1.084-.002 0-.005 0-.008 0-.984 0-1.911.384-2.61 1.083l-.227.228c.002.002.004.002.006.004z"></path><path d="m1.288 16.722-1.273 6.382c-.049.246.027.5.205.677.141.141.333.219.53.219.049 0 .098-.005.146-.015l6.382-1.273z"></path></g></svg>